<?xml version="1.0" encoding="iso-8859-1"?>
<!-- Generator: Adobe Illustrator 16.0.0, SVG Export Plug-In . SVG Version: 6.00 Build 0)  -->
<!DOCTYPE svg PUBLIC "-//W3C//DTD SVG 1.1//EN" "http://www.w3.org/Graphics/SVG/1.1/DTD/svg11.dtd">
<svg version="1.1" id="Capa_1" xmlns="http://www.w3.org/2000/svg" xmlns:xlink="http://www.w3.org/1999/xlink" x="0px" y="0px"
	 width="469.408px" height="469.408px" viewBox="0 0 469.408 469.408" style="enable-background:new 0 0 469.408 469.408;"
	 xml:space="preserve">
<g>
	<g>
		<path d="M361.487,126.783H107.921C48.413,126.783,0,175.195,0,234.704c0,59.507,48.413,107.921,107.921,107.921
			c25.866,0,50.901-9.328,70.493-26.265c10.676-9.229,19.346-20.384,25.652-32.734c7.896,7.265,18.43,11.703,30.005,11.703h1.266
			c11.574,0,22.109-4.438,30.005-11.703c6.307,12.351,14.977,23.505,25.651,32.734c19.594,16.937,44.628,26.265,70.494,26.265
			c59.508,0,107.921-48.414,107.921-107.921C469.408,175.195,420.995,126.783,361.487,126.783z M107.921,296.148
			c-33.913,0-61.503-27.59-61.503-61.504c0-33.913,27.59-61.502,61.503-61.502c33.913,0,61.503,27.59,61.503,61.502
			C169.424,268.559,141.834,296.148,107.921,296.148z M361.487,296.148c-33.913,0-61.504-27.59-61.504-61.504
			c0-33.913,27.591-61.502,61.504-61.502s61.503,27.59,61.503,61.502C422.99,268.559,395.4,296.148,361.487,296.148z"/>
		<path d="M131.01,252.693c-10.328-1.666-19.727-6.486-27.18-13.939c-7.394-7.393-12.204-16.808-13.911-27.228
			c-0.357-2.182-1.923-3.972-4.039-4.614c-2.117-0.642-4.413-0.026-5.923,1.588c-6.642,7.097-10.299,16.385-10.299,26.151
			c0,10.241,3.976,19.858,11.195,27.077c7.22,7.221,16.837,11.197,27.079,11.197c9.747,0,19.021-3.646,26.111-10.264
			c1.62-1.511,2.238-3.812,1.592-5.932C134.991,254.613,133.196,253.046,131.01,252.693z"/>
		<path d="M383.529,206.912c-2.116,0.643-3.683,2.433-4.04,4.613c-1.708,10.42-6.518,19.835-13.91,27.229
			c-7.454,7.453-16.853,12.273-27.18,13.939c-2.188,0.353-3.982,1.919-4.627,4.039c-0.646,2.117-0.027,4.42,1.592,5.931
			c7.09,6.617,16.362,10.263,26.111,10.263c10.241,0,19.857-3.977,27.077-11.195c7.221-7.221,11.195-16.836,11.195-27.078
			c0-9.768-3.657-19.056-10.297-26.151C387.941,206.886,385.642,206.27,383.529,206.912z"/>
	</g>
</g>
<g>
</g>
<g>
</g>
<g>
</g>
<g>
</g>
<g>
</g>
<g>
</g>
<g>
</g>
<g>
</g>
<g>
</g>
<g>
</g>
<g>
</g>
<g>
</g>
<g>
</g>
<g>
</g>
<g>
</g>
</svg>
